<?xml version="1.0" standalone="no"?><!DOCTYPE svg PUBLIC "-//W3C//DTD SVG 1.1//EN" "http://www.w3.org/Graphics/SVG/1.1/DTD/svg11.dtd"><svg class="icon" width="200px" height="200.00px" viewBox="0 0 1024 1024" version="1.1" xmlns="http://www.w3.org/2000/svg"><path d="M892.115 375.838s62.55-256.944-1.1-293.376C829.747 47.399 647.01 224.553 647.01 224.553s-10.265-4.619-11.232-1.939c-8.567 23.778-18.203 118.832-18.203 118.832 0 10.385-8.426 18.82-18.81 18.82-10.396 0-18.82-8.435-18.82-18.82l1.688-131.836c1.64 0.09-14.552 0.96-19.671 0.48-12.953-1.529-4.777 0.489-18.062-0.07 0.161 0.02 0.421 0.041 0.561 0.06-2.429 24.838-8.615 130.216-8.615 130.216 0 10.395-8.427 18.811-18.812 18.811-10.396 0-18.82-8.417-19.141-20.891l-16.092-126.668-0.12-0.499c-7.276-2.318-30.345 3.668-30.345 3.668 10.675 21.769-3.279 126.729-3.279 126.729 0 10.395-8.426 18.81-18.811 18.81-10.396 0-18.82-8.415-18.391-10.705l-16.872-121.61-6.337-6.296C325.957 173.567 180.549 47.729 116.97 89.779c-63.579 42.048 18.511 304.33 18.511 304.33-40.32 56.633-61.15 121.322-61.15 192.197 0 208.208 200.103 376.984 446.942 376.984 246.822 0 446.927-168.776 446.927-376.984-0.001-77.943-28.049-150.356-76.085-210.468z m-705.559-40.889s-41.43-132.386-9.335-153.605c32.084-21.221 137.692 68.715 137.692 68.715l-128.357 84.89z m431.199 392.479c-2.158 0-4.317-0.121-6.507-0.361-33.573-3.637-62.309-35.582-85.488-94.994-23.178 59.412-51.915 91.357-85.488 94.994-54.483 5.907-100.041-65.008-101.96-68.025l8.656-5.479c0.439 0.69 44.008 68.508 92.214 63.33 31.165-3.398 58.302-36.412 80.651-98.134l0.239-0.669c-13.634-7.607-29.775-37.342-22.379-47.166 8.496-11.305 49.416-12.205 56.563 0 6.256 10.685-9.275 40.189-22.729 47.387l0.16 0.448c22.359 61.731 49.487 94.755 80.671 98.134 48.456 5.357 91.776-62.64 92.194-63.33l8.657 5.479c-1.841 2.897-43.84 68.386-95.454 68.386z m223.026-402.864l-126.144-88.136s107.872-87.208 139.416-65.168c31.525 22.028-13.272 153.304-13.272 153.304z" fill="#D77552" /><path d="M386.108 507.174c0 42.07-34.084 76.154-76.163 76.154-42.06 0-76.183-34.084-76.183-76.154 0-42.079 34.123-76.172 76.183-76.172 42.079-0.001 76.163 34.093 76.163 76.172z" fill="#F5E829" /><path d="M305.397 464.426c0 18.491-14.982 33.463-33.454 33.463-18.461 0-33.442-14.972-33.442-33.463 0-18.472 14.981-33.424 33.442-33.424 18.472-0.001 33.454 14.952 33.454 33.424z" fill="#FFFFFF" /><path d="M818.571 507.174c0 42.07-34.102 76.154-76.184 76.154-42.053 0-76.156-34.084-76.156-76.154 0-42.079 34.104-76.172 76.156-76.172 42.083-0.001 76.184 34.093 76.184 76.172z" fill="#F5E829" /><path d="M737.856 464.426c0 18.491-14.984 33.463-33.454 33.463-18.46 0-33.443-14.972-33.443-33.463 0-18.472 14.983-33.424 33.443-33.424 18.47-0.001 33.454 14.952 33.454 33.424z" fill="#FFFFFF" /></svg>