<?xml version="1.0" standalone="no"?><!DOCTYPE svg PUBLIC "-//W3C//DTD SVG 1.1//EN" "http://www.w3.org/Graphics/SVG/1.1/DTD/svg11.dtd"><svg class="icon" width="200px" height="200.00px" viewBox="0 0 1024 1024" version="1.1" xmlns="http://www.w3.org/2000/svg"><path d="M5.12 510.52088889c0 280.80355555 227.66933333 508.47288889 508.47288889 508.47288889s508.47288889-227.66933333 508.47288889-508.47288889-227.55555555-508.47288889-508.47288889-508.47288889S5.12 229.71733333 5.12 510.52088889z" fill="#844F7F" /><path d="M403.22844445 319.14666667l-113.77777778-90.68088889c-11.94666667-9.55733333-29.696-2.84444445-32.54044445 12.288-9.32977778 50.06222222-17.63555555 144.27022222 40.73244445 179.76888889l105.58577778-101.376z" fill="#DDA019" /><path d="M655.36 330.06933333l77.71022222-61.89511111c12.06044445-9.67111111 30.15111111-2.73066667 32.54044445 12.62933333 6.03022222 38.57066667 7.50933333 104.22044445-32.65422222 128.5688889L655.36 330.06933333z" fill="#F3D2BA" /><path d="M625.55022222 319.14666667l113.77777778-90.68088889c11.94666667-9.55733333 29.696-2.84444445 32.54044445 12.288 9.32977778 50.06222222 17.63555555 144.27022222-40.73244445 179.76888889l-105.58577778-101.376z" fill="#DDA019" /><path d="M315.84711111 284.44444445c-2.27555555 4.43733333-47.67288889 97.05244445-20.13866666 124.928-40.04977778-24.34844445-38.68444445-89.99822222-32.65422223-128.5688889 2.38933333-15.36 20.48-22.30044445 32.65422223-12.62933333l20.25244444 16.15644445-0.11377778 0.11377778z" fill="#FCE7CA" /><path d="M337.80622222 366.47822222L295.82222222 409.37244445c-13.312-13.42577778-9.55733333-41.87022222-1.93422222-68.26666667-11.37777778 2.95822222-9.32977778-18.77333333-9.32977778-18.77333333 2.27555555 5.68888889 9.44355555 5.57511111 13.76711111 4.89244444l0.34133334-1.024c-10.69511111-3.41333333-8.53333333-34.47466667-5.46133334-24.00711111 3.41333333 11.37777778 12.97066667 4.096 12.97066667 4.096-5.34755555-14.56355555-3.072-25.03111111-3.072-25.03111111 8.30577778 7.62311111 12.85688889 3.072 12.85688889 3.072l26.51022222 21.04888888c-1.93422222 14.336-5.68888889 46.53511111-4.66488889 61.09866667z" fill="#DDA019" /><path d="M712.93155555 284.44444445c2.27555555 4.43733333 47.67288889 97.05244445 20.13866667 124.928 40.04977778-24.34844445 38.68444445-89.99822222 32.65422223-128.5688889-2.38933333-15.36-20.48-22.30044445-32.65422223-12.62933333l-20.25244444 16.15644445 0.11377777 0.11377778z" fill="#FCE7CA" /><path d="M735.00444445 340.992c7.62311111 26.39644445 11.264 54.84088889-1.93422223 68.26666667L691.08622222 366.36444445c1.024-14.56355555-2.84444445-46.87644445-4.66488889-61.09866667l26.51022222-21.04888889s4.55111111 4.55111111 12.8568889-3.072c0 0 2.27555555 10.46755555-3.072 25.03111111 0 0 9.44355555 7.28177778 12.97066666-4.096 3.072-10.46755555 5.34755555 20.59377778-5.46133333 24.00711111l0.34133333 1.024c4.20977778 0.56888889 11.37777778 0.79644445 13.76711111-4.89244444 0 0 2.048 21.84533333-9.32977777 18.77333333z" fill="#DDA019" /><path d="M873.24444445 660.25244445l-2.16177778 2.16177777 0.11377778 0.11377778 2.048-2.27555555c1.59288889 61.21244445-34.816 113.09511111-63.71555556 144.49777777-16.27022222 17.74933333-38.45688889 30.60622222-63.37422222 37.43288889-2.38933333 0.68266667-4.89244445 1.36533333-7.39555556 1.93422222-0.68266667 0.11377778-1.36533333 0.34133333-2.048 0.45511112-2.16177778 0.45511111-4.20977778 0.79644445-6.48533333 1.25155555-0.45511111 0.11377778-0.79644445 0.11377778-1.25155556 0.22755555-1.93422222 0.34133333-3.86844445 0.56888889-5.91644444 0.79644445-1.13777778 0.22755555-2.38933333 0.34133333-3.52711111 0.45511111-2.38933333 0.22755555-4.77866667 0.45511111-7.28177778 0.56888889-35.27111111 1.82044445-76.68622222 0-112.52622222-2.50311111-3.52711111-0.34133333-6.94044445-0.56888889-10.35377778-0.79644444-4.096-0.34133333-8.07822222-0.68266667-11.83288889-1.024-0.45511111-0.11377778-0.79644445-0.11377778-1.25155555-0.11377778l-11.37777778-1.024c-12.85688889-1.25155555-24.00711111-2.38933333-32.42666667-3.41333334l-3.41333333-0.34133333c-1.70666667-0.22755555-3.52711111-0.34133333-5.34755556-0.45511111l-8.41955556-11.60533334c-0.34133333-0.45511111-0.68266667-0.56888889-0.79644444-0.56888888-0.22755555 0-0.56888889 0-0.91022222 0.34133333l-9.78488889 11.94666667c-1.82044445 0.11377778-3.64088889 0.22755555-5.46133333 0.45511111l-2.048 0.22755555c-8.53333333 1.024-19.56977778 2.16177778-32.42666667 3.41333334-3.75466667 0.34133333-7.50933333 0.68266667-11.37777778 1.024-0.45511111 0.11377778-0.79644445 0.11377778-1.25155555 0.11377778-3.86844445 0.34133333-7.73688889 0.68266667-11.83288889 1.024-3.52711111 0.22755555-7.168 0.56888889-10.80888889 0.79644444-35.72622222 2.61688889-77.02755555 4.32355555-112.18488889 2.50311111-11.60533333-0.56888889-22.98311111-2.38933333-33.792-5.46133333h-0.22755555c-24.80355555-6.82666667-46.99022222-19.79733333-63.14666667-37.43288889-28.89955555-31.40266667-65.30844445-83.28533333-63.71555556-144.384l2.16177778 2.048 0.11377778-0.11377778-2.27555556-2.048v-0.11377778c0.91022222-33.792 13.53955555-70.31466667 45.39733333-107.86133333l7.168-8.53333334c10.35377778-0.34133333 23.77955555 2.73066667 33.45066667-1.93422222 8.30577778-3.86844445 13.99466667-12.06044445 19.11466667-19.00088888 6.94044445-9.216 13.08444445-19.00088889 19.22844444-28.78577778 22.75555555-36.18133333 44.14577778-77.25511111 77.25511112-105.35822222 53.70311111-45.62488889 157.12711111 20.48 157.1271111 20.48s103.424-65.99111111 157.12711112-20.48c33.10933333 28.10311111 54.49955555 69.17688889 77.25511111 105.35822222 6.144 9.78488889 12.40177778 19.56977778 19.22844444 28.78577778 5.12 6.94044445 10.92266667 15.13244445 19.11466667 19.00088888 9.67111111 4.55111111 23.09688889 1.47911111 33.45066666 1.93422222l7.168 8.53333334c32.08533333 37.43288889 44.71466667 73.95555555 45.6248889 107.74755556z" fill="#FCBD3F" /><path d="M419.49866667 633.28711111m-39.70844445 0a39.70844445 39.70844445 0 1 0 79.41688889 0 39.70844445 39.70844445 0 1 0-79.41688889 0Z" fill="#FFD68D" /><path d="M609.28 633.28711111m-39.70844445 0a39.70844445 39.70844445 0 1 0 79.4168889 0 39.70844445 39.70844445 0 1 0-79.4168889 0Z" fill="#FFD68D" /><path d="M577.536 843.32088889c-0.68266667 0.11377778-1.25155555 0.11377778-1.25155555 0.11377778h-0.11377778c-0.34133333 2.73066667-6.82666667 41.07377778-61.89511112 41.07377778-54.95466667 0-61.55377778-38.34311111-61.8951111-41.07377778h-0.11377778s-0.45511111 0-1.25155556-0.11377778c0.45511111-0.11377778 0.79644445-0.11377778 1.25155556-0.11377778 3.86844445-0.34133333 7.73688889-0.68266667 11.37777778-1.024 12.85688889-1.25155555 23.89333333-2.38933333 32.42666666-3.41333333l2.048-0.22755556c1.82044445-0.22755555 3.64088889-0.34133333 5.46133334-0.45511111l9.78488888-11.94666666c0.34133333-0.34133333 0.68266667-0.34133333 0.91022222-0.34133334s0.56888889 0.11377778 0.79644445 0.56888889l8.41955555 11.60533333c1.82044445 0.11377778 3.64088889 0.22755555 5.34755556 0.45511112l3.41333334 0.34133333c8.41955555 1.024 19.56977778 2.16177778 32.42666666 3.41333333l11.37777778 1.024c0.68266667 0.11377778 1.13777778 0.11377778 1.47911111 0.11377778z" fill="#F0D5A9" /><path d="M746.15466667 842.18311111c-2.38933333 0.68266667-4.89244445 1.36533333-7.39555556 1.93422222-0.68266667 0.11377778-1.36533333 0.34133333-2.048 0.45511112-2.16177778 0.45511111-4.20977778 0.79644445-6.48533333 1.25155555-0.45511111 0.11377778-0.79644445 0.11377778-1.25155556 0.22755555-1.93422222 0.34133333-3.86844445 0.56888889-5.91644444 0.79644445-1.13777778 0.22755555-2.38933333 0.34133333-3.52711111 0.45511111-2.38933333 0.22755555-4.77866667 0.45511111-7.28177778 0.56888889-35.27111111 1.82044445-76.68622222 0-112.52622222-2.50311111-3.52711111-0.22755555-6.94044445-0.56888889-10.35377778-0.79644444-4.096-0.34133333-8.07822222-0.68266667-11.83288889-1.024-0.45511111-0.11377778-0.79644445-0.11377778-1.25155555-0.11377778l-11.37777778-1.024c-12.85688889-1.25155555-24.00711111-2.38933333-32.42666667-3.41333334l-3.41333333-0.34133333c-1.70666667-0.22755555-3.52711111-0.34133333-5.34755556-0.45511111l-8.41955556-11.60533334c-0.34133333-0.45511111-0.68266667-0.56888889-0.79644444-0.56888888-0.22755555 0-0.56888889 0-0.91022222 0.34133333l-9.78488889 11.94666667c-1.82044445 0.11377778-3.64088889 0.22755555-5.46133333 0.45511111l-2.048 0.22755555c-8.53333333 1.024-19.56977778 2.16177778-32.42666667 3.41333334-3.75466667 0.34133333-7.50933333 0.68266667-11.37777778 1.024-0.45511111 0.11377778-0.79644445 0.11377778-1.25155555 0.11377778-3.86844445 0.34133333-7.73688889 0.68266667-11.83288889 1.024-3.52711111 0.22755555-7.168 0.56888889-10.80888889 0.79644444-35.72622222 2.61688889-77.02755555 4.32355555-112.18488889 2.50311111-11.60533333-0.56888889-22.98311111-2.38933333-33.792-5.46133333 57.45777778 4.20977778 96.256-2.84444445 119.23911111-9.89866667 15.58755555-4.77866667 28.44444445-15.58755555 36.18133334-29.92355555l54.61333333-101.376h43.57688889l54.61333333 101.376c7.73688889 14.336 20.59377778 25.14488889 36.18133333 29.92355555 22.86933333 6.82666667 61.66755555 13.99466667 119.12533334 9.67111111z" fill="#FCDFB1" /><path d="M599.83644445 575.94311111c-14.90488889 0-28.10311111 7.39555555-36.18133334 18.65955556v-0.11377778s-31.97155555 16.15644445-49.152 16.15644444c-17.18044445 0-49.152-16.15644445-49.152-16.15644444v0.11377778c-8.07822222-11.264-21.27644445-18.65955555-36.18133333-18.65955556-24.68977778 0-44.60088889 20.02488889-44.60088889 44.60088889s20.02488889 44.60088889 44.60088889 44.60088889c19.68355555 0 36.40888889-12.85688889 42.32533333-30.49244444l10.12622222 66.44622222c3.072 38.57066667 32.99555555 35.04355555 32.99555556 35.04355555s29.92355555 3.52711111 32.99555556-35.04355555l10.12622222-66.44622222c5.91644445 17.74933333 22.64177778 30.49244445 42.32533333 30.49244444 24.68977778 0 44.60088889-20.02488889 44.60088889-44.60088889s-20.25244445-44.60088889-44.82844444-44.60088889z" fill="#DDA019" /><path d="M523.71911111 838.08711111c-6.59911111-0.34133333-13.312-0.34133333-19.91111111 0.11377778l9.78488889-11.94666667c0.34133333-0.34133333 0.68266667-0.34133333 0.91022222-0.34133333s0.56888889 0.11377778 0.79644444 0.56888889l8.41955556 11.60533333z" fill="#645646" /><path d="M42.21155555 701.89511111l2.95822223 2.61688889-0.11377778 0.11377778zM873.24444445 660.25244445l-2.16177778 2.16177777zM871.08266667 662.41422222l2.16177778-2.16177777-2.16177778 2.16177777zM875.29244445 658.09066667l-2.048 2.16177778z" fill="#E27135" /><path d="M45.16977778 704.512l-0.11377778 0.11377778-2.84444445-2.73066667z" fill="#E27135" /><path d="M428.94222222 620.544m-36.18133333 0a36.18133333 36.18133333 0 1 0 72.36266666 0 36.18133333 36.18133333 0 1 0-72.36266666 0Z" fill="#8FDFFF" /><path d="M429.056 659.79733333c-21.61777778 0-39.25333333-17.63555555-39.25333333-39.25333333s17.63555555-39.25333333 39.25333333-39.25333333 39.25333333 17.63555555 39.25333333 39.25333333-17.63555555 39.25333333-39.25333333 39.25333333z m0-72.36266666c-18.31822222 0-33.22311111 14.90488889-33.22311111 33.22311111s14.90488889 33.22311111 33.22311111 33.22311111 33.22311111-14.90488889 33.22311111-33.22311111-15.01866667-33.22311111-33.22311111-33.22311111z" fill="#1D1218" /><path d="M428.94222222 620.544m-22.18666667 0a22.18666667 22.18666667 0 1 0 44.37333334 0 22.18666667 22.18666667 0 1 0-44.37333334 0Z" fill="#288FAF" /><path d="M428.94222222 620.544m-18.54577777 0a18.54577778 18.54577778 0 1 0 37.09155555 0 18.54577778 18.54577778 0 1 0-37.09155555 0Z" fill="#1D1218" /><path d="M448.17066667 603.24977778m-9.78488889 0a9.78488889 9.78488889 0 1 0 19.56977777 0 9.78488889 9.78488889 0 1 0-19.56977777 0Z" fill="#FFFFFF" /><path d="M599.83644445 620.544m-36.18133334 0a36.18133333 36.18133333 0 1 0 72.36266667 0 36.18133333 36.18133333 0 1 0-72.36266667 0Z" fill="#8FDFFF" /><path d="M599.83644445 659.79733333c-21.61777778 0-39.25333333-17.63555555-39.25333334-39.25333333s17.63555555-39.25333333 39.25333334-39.25333333 39.25333333 17.63555555 39.25333333 39.25333333-17.63555555 39.25333333-39.25333333 39.25333333z m0-72.36266666c-18.31822222 0-33.22311111 14.90488889-33.22311112 33.22311111s14.90488889 33.22311111 33.22311112 33.22311111 33.22311111-14.90488889 33.2231111-33.22311111-15.01866667-33.22311111-33.2231111-33.22311111z" fill="#1D1218" /><path d="M599.83644445 620.544m-22.18666667 0a22.18666667 22.18666667 0 1 0 44.37333333 0 22.18666667 22.18666667 0 1 0-44.37333333 0Z" fill="#288FAF" /><path d="M599.83644445 620.544m-18.54577778 0a18.54577778 18.54577778 0 1 0 37.09155555 0 18.54577778 18.54577778 0 1 0-37.09155555 0Z" fill="#1D1218" /><path d="M618.26844445 603.24977778m-9.7848889 0a9.78488889 9.78488889 0 1 0 19.56977778 0 9.78488889 9.78488889 0 1 0-19.56977778 0Z" fill="#FFFFFF" /><path d="M529.06666667 838.54222222c-1.70666667-0.22755555-3.52711111-0.34133333-5.34755556-0.45511111l-8.41955556-11.60533333c-0.34133333-0.45511111-0.68266667-0.56888889-0.79644444-0.56888889-0.22755555 0-0.56888889 0-0.91022222 0.34133333l-9.78488889 11.94666667c-1.82044445 0.11377778-3.64088889 0.22755555-5.46133333 0.45511111-0.11377778-0.56888889 0.11377778-1.13777778 0.56888888-1.70666667l11.15022223-13.53955555c1.13777778-1.36533333 2.84444445-2.27555555 4.66488889-2.16177778 1.82044445 0.11377778 3.41333333 1.024 4.55111111 2.50311111l9.44355555 13.08444444c0.22755555 0.56888889 0.34133333 1.13777778 0.34133334 1.70666667z" fill="#766854" /><path d="M476.04622222 794.85155555m-3.41333333 0a3.41333333 3.41333333 0 1 0 6.82666666 0 3.41333333 3.41333333 0 1 0-6.82666666 0Z" fill="#766854" /><path d="M476.04622222 806.912m-3.41333333 0a3.41333333 3.41333333 0 1 0 6.82666666 0 3.41333333 3.41333333 0 1 0-6.82666666 0Z" fill="#766854" /><path d="M462.62044445 796.33066667m-3.41333334 0a3.41333333 3.41333333 0 1 0 6.82666667 0 3.41333333 3.41333333 0 1 0-6.82666667 0Z" fill="#766854" /><path d="M462.62044445 816.128m-3.41333334 0a3.41333333 3.41333333 0 1 0 6.82666667 0 3.41333333 3.41333333 0 1 0-6.82666667 0Z" fill="#C6AC99" /><path d="M449.37042717 810.50275157a3.41333333 3.41333333 0 1 0 6.47919957-2.1501952 3.41333333 3.41333333 0 1 0-6.47919957 2.1501952Z" fill="#C6AC99" /><path d="M442.54269554 800.82960611a3.41333333 3.41333333 0 1 0 6.47920071-2.1501952 3.41333333 3.41333333 0 1 0-6.47920071 2.1501952Z" fill="#C6AC99" /><path d="M553.18755555 794.85155555m-3.41333333 0a3.41333333 3.41333333 0 1 0 6.82666667 0 3.41333333 3.41333333 0 1 0-6.82666667 0Z" fill="#766854" /><path d="M553.18755555 806.912m-3.41333333 0a3.41333333 3.41333333 0 1 0 6.82666667 0 3.41333333 3.41333333 0 1 0-6.82666667 0Z" fill="#766854" /><path d="M566.72711111 796.33066667m-3.41333333 0a3.41333333 3.41333333 0 1 0 6.82666667 0 3.41333333 3.41333333 0 1 0-6.82666667 0Z" fill="#766854" /><path d="M566.72711111 816.128m-3.41333333 0a3.41333333 3.41333333 0 1 0 6.82666667 0 3.41333333 3.41333333 0 1 0-6.82666667 0Z" fill="#C6AC99" /><path d="M575.73535061 812.56355385a3.41333333 3.41333333 0 1 0 2.15042162-6.47912562 3.41333333 3.41333333 0 1 0-2.15042162 6.47912562Z" fill="#C6AC99" /><path d="M582.48766919 802.93341981a3.41333333 3.41333333 0 1 0 2.15042048-6.47912562 3.41333333 3.41333333 0 1 0-2.15042048 6.47912562Z" fill="#C6AC99" /><path d="M514.61688889 822.84088889c-0.79644445 0-1.47911111-0.68266667-1.47911111-1.47911111l-0.22755556-74.41066667c0-0.79644445 0.68266667-1.47911111 1.47911111-1.47911111 0.79644445 0 1.47911111 0.68266667 1.47911112 1.47911111l0.22755555 74.41066667c0.11377778 0.79644445-0.56888889 1.47911111-1.47911111 1.47911111z" fill="#766854" /><path d="M568.20622222 383.65866667c2.84444445 8.64711111 11.03644445 14.90488889 20.70755556 14.90488888 12.06044445 0 21.73155555-9.78488889 21.73155555-21.84533333 0-1.13777778-0.11377778-2.16177778-0.22755555-3.18577777-14.44977778 1.47911111-29.01333333 5.34755555-42.21155556 10.12622222z" fill="#EFB237" /><path d="M820.33777778 543.97155555c-10.35377778-0.34133333-23.77955555 2.73066667-33.45066667-1.93422222-8.30577778-3.86844445-13.99466667-12.06044445-19.11466666-19.00088888-6.94044445-9.216-13.08444445-19.00088889-19.22844445-28.78577778-22.75555555-36.18133333-44.14577778-77.25511111-77.25511111-105.35822222-29.58222222-25.14488889-74.06933333-16.384-108.20266667-3.41333334l-15.70133333 88.29155556c-2.27555555 13.08444445-13.65333333 22.64177778-27.07911111 22.64177778h-12.17422223c-13.42577778 0-24.80355555-9.55733333-27.0791111-22.64177778L465.35111111 385.47911111h-0.11377778c-14.44977778-5.46133333-30.83377778-10.24-47.104-11.83288889-22.07288889-2.38933333-44.14577778 0.91022222-61.09866666 15.36-33.10933333 28.10311111-54.49955555 69.17688889-77.25511112 105.35822223-6.144 9.78488889-12.40177778 19.56977778-19.22844444 28.78577777-5.12 6.94044445-10.92266667 15.13244445-19.11466666 19.00088889-9.67111111 4.55111111-23.09688889 1.47911111-33.45066667 1.93422222 23.21066667-28.10311111 43.91822222-57.68533333 60.87111111-88.74666666 41.75644445-76.23111111 119.01155555-193.99111111 185.68533333-166.79822222v0.11377777c16.04266667 6.59911111 33.33688889 10.35377778 50.74488889 11.264 5.91644445 0.34133333 11.83288889 0.34133333 17.74933334 0 17.408-1.024 34.70222222-4.66488889 50.74488888-11.264v-0.11377777c66.67377778-27.42044445 143.92888889 90.45333333 185.68533334 166.68444444 16.95288889 31.06133333 37.66044445 60.52977778 60.87111111 88.74666666z" fill="#DDA019" /><path d="M567.06844445 376.71822222c0 2.38933333 0.34133333 4.66488889 1.13777777 6.82666667 13.19822222-4.66488889 27.76177778-8.53333333 42.21155556-10.01244444-1.47911111-10.46755555-10.58133333-18.65955555-21.504-18.65955556-12.06044445 0.11377778-21.84533333 9.78488889-21.84533333 21.84533333zM460.57244445 383.65866667c-2.84444445 8.64711111-11.03644445 14.90488889-20.70755556 14.90488888-12.06044445 0-21.73155555-9.78488889-21.73155556-21.84533333 0-1.13777778 0.11377778-2.16177778 0.22755556-3.18577777 14.44977778 1.47911111 29.01333333 5.34755555 42.21155556 10.12622222z" fill="#EFB237" /><path d="M461.71022222 376.71822222c0 2.38933333-0.34133333 4.66488889-1.13777777 6.82666667-13.19822222-4.66488889-27.76177778-8.53333333-42.21155556-10.01244444 1.47911111-10.46755555 10.58133333-18.65955555 21.504-18.65955556 12.06044445 0.11377778 21.84533333 9.78488889 21.84533333 21.84533333z" fill="#EFB237" /><path d="M539.30666667 713.04533333c-5.91644445-6.48533333-24.91733333 8.41955555-24.91733334 8.41955556s-19.00088889-14.90488889-24.91733333-8.41955556c-2.84444445 3.072-4.77866667 6.71288889-4.096 11.03644445 1.13777778 6.71288889 5.23377778 12.51555555 11.49155555 15.13244444 4.77866667 2.048 10.24 2.38933333 14.9048889 4.89244445 0.91022222 0.45511111 2.61688889 1.59288889 2.61688888 2.84444444 0-1.25155555 1.70666667-2.27555555 2.61688889-2.84444444 4.55111111-2.50311111 10.12622222-2.95822222 14.90488889-4.89244445 6.25777778-2.61688889 10.35377778-8.53333333 11.49155556-15.13244444 0.68266667-4.32355555-1.25155555-7.96444445-4.096-11.03644445z" fill="#F0725A" /><path d="M498.00437646 737.74997845a10.46755555 2.27555555 23.155 1 0 1.78958791-4.18449408 10.46755555 2.27555555 23.155 1 0-1.78958791 4.18449408Z" fill="#F9A69B" /><path d="M497.84598983 738.10617344a9.216 1.93422222 23.155 1 0 1.52114972-3.55681963 9.216 1.93422222 23.155 1 0-1.52114972 3.55681963Z" fill="#1D1218" /><path d="M519.99913984 739.57808128a2.27555555 10.46755555 66.845 1 0 19.24867186-8.23210211 2.27555555 10.46755555 66.845 1 0-19.24867186 8.23210211Z" fill="#F9A69B" /><path d="M521.6195675 739.87846941a1.93422222 9.216 66.845 1 0 16.9472-7.24782877 1.93422222 9.216 66.845 1 0-16.9472 7.24782877Z" fill="#1D1218" /><path d="M167.82222222 725.78844445c-5.80266667-14.56355555-10.01244445-30.15111111-11.60533333-46.53511112 26.16888889-12.97066667 62.464-29.24088889 91.70488889-35.61244444 41.87022222-8.98844445-29.35466667 48.128-80.09955556 82.14755556zM872.448 679.25333333c-1.59288889 16.384-5.80266667 31.97155555-11.60533333 46.53511112-50.74488889-34.01955555-121.856-91.136-80.09955556-82.14755556 29.24088889 6.37155555 65.536 22.64177778 91.70488889 35.61244444z" fill="#DDA019" /><path d="M218.45333333 803.84c-8.98844445-9.78488889-18.65955555-21.504-27.53422222-34.92977778 25.94133333-12.85688889 60.87111111-28.21688889 89.20177778-34.36088889 36.75022222-7.96444445-14.336 35.61244445-61.66755556 69.29066667zM837.85955555 768.91022222c-8.98844445 13.42577778-18.54577778 25.14488889-27.53422222 34.92977778-47.33155555-33.67822222-98.41777778-77.25511111-61.55377778-69.29066667 28.21688889 6.144 63.14666667 21.504 89.088 34.36088889z" fill="#EFB237" /><path d="M446.69155555 793.71377778l-124.47288888-1.36533333c-0.79644445 0-1.47911111-0.68266667-1.47911112-1.5928889 0-0.79644445 0.68266667-1.47911111 1.47911112-1.4791111l124.47288888 1.36533333c0.79644445 0 1.47911111 0.68266667 1.47911112 1.59288889 0 0.79644445-0.68266667 1.47911111-1.47911112 1.47911111zM316.30222222 814.64888889c-0.79644445 0-1.47911111-0.56888889-1.47911111-1.36533334-0.11377778-0.79644445 0.56888889-1.59288889 1.36533334-1.70666666l123.904-12.288c0.91022222-0.11377778 1.59288889 0.56888889 1.70666666 1.36533333s-0.56888889 1.59288889-1.36533333 1.70666667l-124.01777778 12.288h-0.11377778zM323.24266667 833.87733333c-0.68266667 0-1.36533333-0.45511111-1.47911112-1.25155555-0.11377778-0.79644445 0.34133333-1.59288889 1.25155556-1.82044445l122.42488889-22.64177778c0.79644445-0.11377778 1.59288889 0.34133333 1.82044445 1.25155556 0.11377778 0.79644445-0.34133333 1.59288889-1.25155556 1.82044444l-122.42488889 22.64177778h-0.34133333zM582.08711111 793.71377778c-0.79644445 0-1.47911111-0.68266667-1.47911111-1.47911111s0.68266667-1.47911111 1.47911111-1.59288889l124.47288889-1.36533333c0.79644445 0 1.47911111 0.68266667 1.47911111 1.4791111s-0.68266667 1.47911111-1.47911111 1.5928889l-124.47288889 1.36533333zM712.47644445 814.64888889l-124.01777778-12.288c-0.79644445-0.11377778-1.47911111-0.79644445-1.36533334-1.70666667 0.11377778-0.79644445 0.79644445-1.47911111 1.70666667-1.36533333l123.904 12.288c0.79644445 0.11377778 1.47911111 0.79644445 1.36533333 1.70666666-0.11377778 0.68266667-0.79644445 1.36533333-1.59288888 1.36533334zM705.536 833.87733333h-0.22755555L582.88355555 811.23555555c-0.79644445-0.11377778-1.36533333-0.91022222-1.25155555-1.82044444 0.11377778-0.79644445 0.91022222-1.36533333 1.82044445-1.25155556l122.42488888 22.64177778c0.79644445 0.11377778 1.36533333 0.91022222 1.25155556 1.82044445-0.22755555 0.79644445-0.91022222 1.25155555-1.59288889 1.25155555z" fill="#F7E8D0" /><path d="M465.23733333 535.89333333m-24.12088888 0a24.12088889 24.12088889 0 1 0 48.24177777 0 24.12088889 24.12088889 0 1 0-48.24177777 0Z" fill="#DDA019" /><path d="M563.54133333 535.89333333m-24.12088888 0a24.12088889 24.12088889 0 1 0 48.24177777 0 24.12088889 24.12088889 0 1 0-48.24177777 0Z" fill="#DDA019" /><path d="M473.54311111 294.57066667s-22.98311111 34.01955555-32.42666666 27.648 10.58133333-35.15733333 10.58133333-35.15733334 19.79733333 6.71288889 21.84533333 7.50933334zM408.34844445 329.728s-22.98311111 34.01955555-32.42666667 27.648 10.58133333-35.15733333 10.58133333-35.15733333l21.84533334 7.50933333zM555.23555555 294.57066667s22.98311111 34.01955555 32.42666667 27.648-10.58133333-35.15733333-10.58133333-35.15733334-19.79733333 6.71288889-21.84533334 7.50933334zM620.43022222 329.728s22.98311111 34.01955555 32.42666667 27.648-10.58133333-35.15733333-10.58133334-35.15733333l-21.84533333 7.50933333z" fill="#EFB237" /><path d="M514.38933333 341.10577778c-13.88088889 0-8.87466667-41.52888889-8.87466666-41.52888889 5.91644445 0.34133333 11.83288889 0.34133333 17.74933333 0 0 0 5.00622222 41.52888889-8.87466667 41.52888889z" fill="#EFB237" /><path d="M514.38933333 410.73777778c-13.88088889 0-8.87466667-41.52888889-8.87466666-41.52888889 5.91644445 0.34133333 11.83288889 0.34133333 17.74933333 0 0 0.11377778 5.00622222 41.52888889-8.87466667 41.52888889z" fill="#EFB237" /></svg>