<?xml version="1.0" standalone="no"?><!DOCTYPE svg PUBLIC "-//W3C//DTD SVG 1.1//EN" "http://www.w3.org/Graphics/SVG/1.1/DTD/svg11.dtd"><svg class="icon" width="200px" height="200.00px" viewBox="0 0 1024 1024" version="1.1" xmlns="http://www.w3.org/2000/svg"><path d="M0 0h1024v1024H0z" fill="#FFFFFF" /><path d="M864 984H160c-66.168 0-120-53.832-120-120V160c0-66.168 53.832-120 120-120h704c66.168 0 120 53.832 120 120v704c0 66.168-53.832 120-120 120z" fill="#D8DDE3" /><path d="M160 80c-44.112 0-80 35.888-80 80v704c0 44.112 35.888 80 80 80h704c44.112 0 80-35.888 80-80V160c0-44.112-35.888-80-80-80H160m0-80h704c88.366 0 160 71.634 160 160v704c0 88.366-71.634 160-160 160H160c-88.366 0-160-71.634-160-160V160C0 71.634 71.634 0 160 0z" fill="#505873" /><path d="M194 268h216a40 40 0 0 1 0 80H194a40 40 0 0 1 0-80z" fill="#FF402A" /><path d="M803.328 277.24L277.24 803.328a40 40 0 0 1-56.568 0 40 40 0 0 1 0-56.568L746.76 220.672a40 40 0 0 1 56.568 0 40 40 0 0 1 0 56.568z" fill="#505873" /><path d="M638 698h216a40 40 0 0 1 0 80H638a40 40 0 0 1 0-80z" fill="#FF402A" /><path d="M342 200v216a40 40 0 0 1-80 0V200a40 40 0 0 1 80 0z" fill="#FF402A" /></svg>