<?xml version="1.0" standalone="no"?><!DOCTYPE svg PUBLIC "-//W3C//DTD SVG 1.1//EN" "http://www.w3.org/Graphics/SVG/1.1/DTD/svg11.dtd"><svg class="icon" width="200px" height="200.00px" viewBox="0 0 1024 1024" version="1.1" xmlns="http://www.w3.org/2000/svg"><path d="M196.187 526.285l-50.615 376.679h669.156L752.053 470.68c-34.81 19.26-106.711 49.201-238.795 68.059-207.388 29.611-317.071-12.454-317.071-12.454z" fill="#FCDE9E" /><path d="M959.278 680.792c0-99.5-76.272-180.697-170.826-182.904l-8.35-57.727c0.068-0.742 0.113-1.496 0.113-2.27 0-20.982-25.655-30.125-35.313-33.567-16.733-5.964-40.307-11.262-70.064-15.748-59.865-9.024-139.287-13.994-223.638-13.994-84.35 0-163.774 4.97-223.639 13.994-29.758 4.486-53.331 9.784-70.065 15.748-9.178 3.271-32.785 11.699-35.111 30.534l-0.022-0.003-56.348 470.411 0.014 0.958v0.965c0 16.264 12.481 28.067 30.033 28.067h721.446c17.552 0 29.98-11.804 29.98-28.067v-1.165l-7.478-51.694c70.301-24.586 119.268-94.122 119.268-173.538zM246.203 418.547c56.491-7.527 129.293-11.673 204.996-11.673 75.702 0 148.505 4.146 204.995 11.673 51.734 6.894 75.294 14.629 85.588 19.344-10.294 4.716-33.854 12.45-85.588 19.344-56.491 7.527-129.292 11.673-204.995 11.673s-148.505-4.146-204.996-11.673c-51.733-6.894-75.293-14.628-85.587-19.344 10.294-4.716 33.854-12.451 85.587-19.344z m-95.437 50.379c2.613 1.064 4.945 1.896 6.73 2.532 16.734 5.964 40.307 11.262 70.065 15.747 59.865 9.024 139.288 13.994 223.639 13.994s163.774-4.97 223.638-13.994c29.757-4.485 53.331-9.784 70.064-15.747 1.82-0.649 4.21-1.501 6.888-2.596l0.264 1.819 62.675 432.284H98.685l52.081-434.039zM833.69 810.629L794.733 541.31c67.868 5.563 121.49 65.996 121.49 139.482-0.001 57.938-33.51 108.916-82.533 129.837zM336.236 306.524c-6.952 5.585-8.06 15.747-2.476 22.699a16.114 16.114 0 0 0 12.598 6.035c3.548 0 7.121-1.164 10.102-3.559 44.934-36.096 53.672-93.398 20.778-136.252-21.92-28.557-20.682-68.229 2.881-92.279 6.24-6.37 6.136-16.592-0.234-22.833-6.371-6.241-16.593-6.136-22.833 0.234-34.746 35.466-37.08 93.305-5.43 134.54 25.789 33.6 10.103 70.94-15.386 91.415zM425.827 306.524c-6.952 5.585-8.06 15.747-2.476 22.699a16.114 16.114 0 0 0 12.598 6.035c3.548 0 7.121-1.164 10.102-3.559 44.934-36.096 53.672-93.398 20.778-136.252-21.92-28.557-20.682-68.229 2.881-92.279 6.24-6.37 6.136-16.592-0.234-22.833-6.371-6.241-16.593-6.136-22.833 0.234-34.746 35.466-37.08 93.305-5.43 134.54 25.79 33.599 10.103 70.94-15.386 91.415zM515.418 306.524c-6.952 5.585-8.06 15.747-2.477 22.699a16.114 16.114 0 0 0 12.598 6.035c3.548 0 7.12-1.164 10.101-3.559 44.934-36.095 53.672-93.397 20.778-136.252-21.92-28.557-20.682-68.229 2.881-92.279 6.24-6.37 6.136-16.592-0.234-22.833-6.368-6.239-16.59-6.136-22.832 0.234-34.746 35.466-37.081 93.305-5.429 134.54 25.789 33.6 10.103 70.94-15.386 91.415z" fill="#58A80A" /></svg>