<?xml version="1.0" standalone="no"?><!DOCTYPE svg PUBLIC "-//W3C//DTD SVG 1.1//EN" "http://www.w3.org/Graphics/SVG/1.1/DTD/svg11.dtd"><svg class="icon" width="200px" height="200.00px" viewBox="0 0 1024 1024" version="1.1" xmlns="http://www.w3.org/2000/svg"><path d="M707.7 565.7H307.9l-4.1-245.8c0-18.7 20.7-30.3 37-20.7L508.9 398l165.7-98.6c16.3-9.7 37.1 1.9 37.1 20.7l-4 245.6z"  /><path d="M723.5 581.7H292.2l-4.3-261.8c0-14.5 7.6-27.5 20.2-34.8 12.8-7.3 28.1-7.3 40.9 0.2l159.9 94.1 157.6-93.7c12.8-7.6 28.1-7.7 41-0.4 12.7 7.2 20.3 20.3 20.3 34.8v0.3l-4.3 261.3z m-399.9-32H692l3.8-229.7c0-4-2.6-6-4.2-6.9-1.3-0.8-4.9-2.3-8.8 0.1L509 416.6 332.7 312.9c-3.9-2.3-7.5-0.8-8.8 0-1.5 0.9-4.1 2.9-4.1 6.9l3.8 229.9z"  /><path d="M355.2 432c-8.8 0-16-7.2-16-16v-61c0-8.8 7.2-16 16-16s16 7.2 16 16v61c0 8.8-7.1 16-16 16zM668.1 432c-8.8 0-16-7.2-16-16v-61c0-8.8 7.2-16 16-16s16 7.2 16 16v61c0 8.8-7.1 16-16 16z" fill="#9A9A9B" /><path d="M562.1 740H453.3c-80.1 0-145.6-65.5-145.6-145.6V485.6c0-80.1 65.5-145.6 145.6-145.6h108.8c80.1 0 145.6 65.5 145.6 145.6v108.8c0 80.1-65.5 145.6-145.6 145.6z" fill="#FFFFFF" /><path d="M562.1 756H453.3c-43 0-83.5-16.9-114.1-47.5-30.6-30.6-47.5-71.1-47.5-114.1V485.6c0-43 16.9-83.5 47.5-114.1S410.3 324 453.3 324h108.8c43 0 83.5 16.9 114.1 47.5 30.6 30.6 47.5 71.1 47.5 114.1v108.8c0 43-16.9 83.5-47.5 114.1-30.5 30.6-71.1 47.5-114.1 47.5zM453.3 356c-34.5 0-67 13.5-91.5 38.1s-38.1 57.1-38.1 91.5v108.8c0 34.5 13.5 67 38.1 91.5 24.6 24.6 57.1 38.1 91.5 38.1h108.8c34.5 0 67-13.5 91.5-38.1 24.6-24.6 38.1-57.1 38.1-91.5V485.6c0-34.5-13.5-67-38.1-91.5-24.6-24.6-57.1-38.1-91.5-38.1H453.3z"  /><path d="M508.7 927.6c-56.2 0-110.6-11-161.9-32.7-49.5-21-94-50.9-132.2-89.1-38.2-38.2-68.2-82.7-89.1-132.2-21.7-51.3-32.7-105.8-32.7-161.9 0-56.2 11-110.6 32.7-161.9 21-49.5 50.9-94 89.1-132.2 38.2-38.2 82.7-68.2 132.2-89.1 51.3-21.7 105.8-32.7 161.9-32.7s110.6 11 161.9 32.7c49.5 21 94 50.9 132.2 89.1 38.2 38.2 68.2 82.7 89.1 132.2 21.7 51.3 32.7 105.8 32.7 161.9 0 56.2-11 110.6-32.7 161.9-21 49.5-50.9 94-89.1 132.2-38.2 38.2-82.7 68.2-132.2 89.1-51.2 21.7-105.7 32.7-161.9 32.7z m0-800c-51.8 0-102.1 10.2-149.5 30.2-45.7 19.3-86.8 47-122.1 82.3s-63 76.3-82.3 122.1c-20 47.3-30.2 97.6-30.2 149.5 0 51.8 10.2 102.1 30.2 149.5 19.3 45.7 47 86.8 82.3 122.1s76.3 63 122.1 82.3c47.3 20 97.6 30.2 149.5 30.2s102.1-10.2 149.5-30.2c45.7-19.3 86.8-47 122.1-82.3s63-76.3 82.3-122.1c20-47.3 30.2-97.6 30.2-149.5 0-51.8-10.2-102.1-30.2-149.5-19.3-45.7-47-86.8-82.3-122.1s-76.3-63-122.1-82.3c-47.3-20-97.6-30.2-149.5-30.2z"  /><path d="M237.5 646.6c-4.9 0-9.7-2.2-12.8-6.4-5.3-7.1-3.8-17.1 3.3-22.4 44.5-33.2 99.4-50 154.7-47.3 8.8 0.4 15.6 7.9 15.2 16.8-0.4 8.8-7.9 15.6-16.8 15.2-47.8-2.4-95.4 12.2-133.9 41-3 2-6.3 3.1-9.7 3.1zM291.1 695.7c-4.9 0-9.7-2.2-12.8-6.4-5.3-7.1-3.8-17.1 3.3-22.4 29.1-21.7 65-32.7 101.1-30.9 8.8 0.4 15.6 7.9 15.2 16.8s-8 15.6-16.8 15.2c-28.7-1.4-57.2 7.3-80.4 24.6-2.9 2-6.2 3.1-9.6 3.1zM771.8 646.6c-3.3 0-6.7-1-9.6-3.2-38.6-28.8-86.1-43.3-133.9-41-8.8 0.4-16.3-6.4-16.8-15.2-0.4-8.8 6.4-16.3 15.2-16.8 55.2-2.7 110.1 14.1 154.7 47.3 7.1 5.3 8.5 15.3 3.3 22.4-3.2 4.2-8 6.5-12.9 6.5zM718.2 695.7c-3.3 0-6.7-1-9.6-3.2-23.1-17.3-51.7-26-80.4-24.6-8.8 0.5-16.3-6.4-16.8-15.2s6.4-16.3 15.2-16.8c36.1-1.8 72 9.2 101.1 30.9 7.1 5.3 8.5 15.3 3.3 22.4-3.1 4.2-7.9 6.5-12.8 6.5zM558.4 353.6h-45.1c-11.9 20.9-18.8 45.1-18.8 70.9 0 79 64 143.1 143.1 143.1 20.1 0 39.2-4.1 56.5-11.6v-66.6c0-74.7-61-135.8-135.7-135.8z"  /><path d="M321.4 489.3v61.2c20.2 10.9 43.3 17.1 67.8 17.1 79 0 143.1-64 143.1-143.1 0-25.8-6.8-50-18.8-70.9H457c-74.6 0-135.6 61.1-135.6 135.7z"  /><path d="M410.7 496.1m-32 0a32 32 0 1 0 64 0 32 32 0 1 0-64 0Z" fill="#FFFFFF" /><path d="M410.7 496.5m-22 0a22 22 0 1 0 44 0 22 22 0 1 0-44 0Z"  /><path d="M619.6 496.1m-32 0a32 32 0 1 0 64 0 32 32 0 1 0-64 0Z" fill="#FFFFFF" /><path d="M619.6 496.5m-22 0a22 22 0 1 0 44 0 22 22 0 1 0-44 0Z"  /><path d="M444.8 655.1c-7.2 0-13-5.8-13-13s5.8-13 13-13c28.7 0 52.1-23.4 52.1-52.1 0-7.2 5.8-13 13-13s13 5.8 13 13c0 43.1-35 78.1-78.1 78.1z"  /><path d="M584.8 655.1c-43.1 0-78.1-35-78.1-78.1 0-7.2 5.8-13 13-13s13 5.8 13 13c0 28.7 23.4 52.1 52.1 52.1 7.2 0 13 5.8 13 13s-5.8 13-13 13z"  /><path d="M528.9 597.5l22.5-39c3.1-5.3-0.8-12-6.9-12h-58.9c-6.2 0-10 6.7-6.9 12l22.5 39c6.1 10.7 21.5 10.7 27.7 0zM514.1 664c-13.3 0-25.8-5.2-35.2-14.6-6.2-6.2-6.2-16.4 0-22.6 6.2-6.2 16.4-6.2 22.6 0 3.4 3.4 7.8 5.2 12.6 5.2s9.2-1.8 12.6-5.2c6.2-6.2 16.4-6.2 22.6 0 6.2 6.2 6.2 16.4 0 22.6-9.4 9.4-21.9 14.6-35.2 14.6z"  /><path d="M410.7 496.3m-21.9 0a21.9 21.9 0 1 0 43.8 0 21.9 21.9 0 1 0-43.8 0Z"  /><path d="M401.8 487m-6.3 0a6.3 6.3 0 1 0 12.6 0 6.3 6.3 0 1 0-12.6 0Z" fill="#FFFFFF" /><path d="M418.5 507m-6.3 0a6.3 6.3 0 1 0 12.6 0 6.3 6.3 0 1 0-12.6 0Z" fill="#FFFFFF" /><path d="M619.6 496.5m-22 0a22 22 0 1 0 44 0 22 22 0 1 0-44 0Z"  /><path d="M610.7 487.1m-6.4 0a6.4 6.4 0 1 0 12.8 0 6.4 6.4 0 1 0-12.8 0Z" fill="#FFFFFF" /><path d="M627.5 507.2m-6.4 0a6.4 6.4 0 1 0 12.8 0 6.4 6.4 0 1 0-12.8 0Z" fill="#FFFFFF" /></svg>