<?xml version="1.0" standalone="no"?><!DOCTYPE svg PUBLIC "-//W3C//DTD SVG 1.1//EN" "http://www.w3.org/Graphics/SVG/1.1/DTD/svg11.dtd"><svg class="icon" width="200px" height="200.00px" viewBox="0 0 1024 1024" version="1.1" xmlns="http://www.w3.org/2000/svg"><path d="M511.33 510.75m-448.47 0a448.47 448.47 0 1 0 896.94 0 448.47 448.47 0 1 0-896.94 0Z" fill="#AF5F43" /><path d="M237.2 480.09s3.25-81.77 11.86-140.08 32.87-156.91 32.87-156.91l93.75 162.65L237.2 480.09z" fill="#F4BD6C" /><path d="M257.42 460.93s1.85-46.56 6.75-79.76 18.72-89.34 18.72-89.34l53.38 92.61-78.85 76.49z" fill="#D37B4A" /><path d="M785.85 480.09s-3.25-81.77-11.86-140.08c-8.61-58.3-32.87-156.91-32.87-156.91l-93.75 162.65 138.48 134.34z" fill="#F4BD6C" /><path d="M765.64 460.93s-1.85-46.56-6.75-79.76-18.72-89.34-18.72-89.34l-53.38 92.61 78.85 76.49z" fill="#D37B4A" /><path d="M223.25 557.95a289.24 243.85 0 1 0 578.48 0 289.24 243.85 0 1 0-578.48 0Z" fill="#FBF5EF" /><path d="M223.25 557.95c0 45.07 14.52 87.27 39.8 123.49 24.3 8.81 54.39 10.72 91.54 0.8 161.22-43.04 147.13-297.39 137.74-332.61-4.3-16.12-10.23-26.81-15.41-33.69-142.96 14.78-253.67 117.49-253.67 242.01zM801.73 557.95c0-123.68-109.22-225.84-250.77-241.7-5.12 6.88-10.94 17.5-15.17 33.37-9.39 35.22-23.48 289.57 137.74 332.61 35.08 9.37 63.86 8.19 87.42 0.61 25.89-36.53 40.78-79.24 40.78-124.89z" fill="#F4BD6C" /><path d="M644.97 559.4m-51.57 0a51.57 51.57 0 1 0 103.14 0 51.57 51.57 0 1 0-103.14 0Z" fill="#FFFFFF" /><path d="M379.16 559.4m-51.57 0a51.57 51.57 0 1 0 103.14 0 51.57 51.57 0 1 0-103.14 0Z" fill="#FFFFFF" /><path d="M379.16 559.4m-35.75 0a35.75 35.75 0 1 0 71.5 0 35.75 35.75 0 1 0-71.5 0Z" fill="#C5C535" /><path d="M384.59 545.66m-12.29 0a12.29 12.29 0 1 0 24.58 0 12.29 12.29 0 1 0-24.58 0Z" fill="#FFFFFF" /><path d="M319.088 499.034l104.782-5.95 2.382 41.932-104.782 5.95z" fill="#F4BD6C" /><path d="M644.97 559.4m-51.57 0a51.57 51.57 0 1 0 103.14 0 51.57 51.57 0 1 0-103.14 0Z" fill="#FFFFFF" /><path d="M644.97 559.4m-35.75 0a35.75 35.75 0 1 0 71.5 0 35.75 35.75 0 1 0-71.5 0Z" fill="#C5C535" /><path d="M639.54 545.66m-12.29 0a12.29 12.29 0 1 0 24.58 0 12.29 12.29 0 1 0-24.58 0Z" fill="#FFFFFF" /><path d="M702.673 540.953l-104.782-5.95 2.381-41.933 104.782 5.95z" fill="#F4BD6C" /><path d="M483.54 631.85c0.01-8.26 55.69-6.98 55.86-0.01 0.32 13.04-18.55 31.5-28.31 31.54-9.71 0.05-27.56-17.25-27.55-31.53z" fill="#D08C7D" /><path d="M481.23 724.09l-3.07-2.76 30.86-34.24v-25.95h4.13v27.54z" fill="#D08C7D" /><path d="M541.33 724.1l-32.32-35.43 0.4-27.56 4.13 0.06-0.37 25.93 31.22 34.22z" fill="#D08C7D" /></svg>