<?xml version="1.0" standalone="no"?><!DOCTYPE svg PUBLIC "-//W3C//DTD SVG 1.1//EN" "http://www.w3.org/Graphics/SVG/1.1/DTD/svg11.dtd"><svg class="icon" width="200px" height="200.00px" viewBox="0 0 1024 1024" version="1.1" xmlns="http://www.w3.org/2000/svg"><path d="M115.2 395.2c-48-20-64.8-334.4-64.8-334.4-0.8-7.2 5.6-12 11.2-9.6 0 0 255.2 81.6 292.8 137.6 44 65.6-165.6 236-239.2 206.4z" fill="#F5A518" /><path d="M135.2 418.4c-9.6 0-19.2-1.6-28-4.8-20-8-43.2-37.6-62.4-191.2C35.2 146.4 31.2 72 30.4 62.4c-0.8-10.4 3.2-20 10.4-25.6 8-6.4 18.4-8 27.2-4 8 2.4 68.8 22.4 132.8 48C344 137.6 364 168 371.2 177.6c13.6 20 19.2 56-29.6 115.2-48 58.4-141.6 125.6-206.4 125.6z m-11.2-41.6c35.2 13.6 132.8-43.2 187.2-108.8 24-29.6 34.4-56 27.2-67.2-24-35.2-169.6-93.6-267.2-125.6 9.6 151.2 32.8 286.4 52.8 301.6z"  /><path d="M119.2 313.6c-7.2-82.4-3.2-164-3.2-164-1.6-6.4 5.6-11.2 11.2-8.8 0 0 68 15.2 138.4 39.2L119.2 313.6z" fill="#EC6B55" /><path d="M927.2 403.2c48-20 64.8-334.4 64.8-334.4 1.6-6.4-5.6-11.2-11.2-8.8 0 0-255.2 81.6-292.8 137.6-43.2 64.8 166.4 235.2 239.2 205.6z" fill="#F5A518" /><path d="M907.2 426.4c-64.8 0-158.4-66.4-206.4-125.6-48-59.2-42.4-95.2-29.6-115.2 6.4-9.6 26.4-40 169.6-97.6 64-25.6 124.8-45.6 132.8-48 9.6-4 20-2.4 28 4s12 16 10.4 25.6c-0.8 9.6-4.8 84-14.4 160-19.2 153.6-42.4 182.4-62.4 191.2-8.8 4-18.4 5.6-28 5.6z m64-343.2C874.4 115.2 728 173.6 704.8 208c-8 12 2.4 38.4 27.2 67.2 54.4 66.4 152 122.4 187.2 108.8 19.2-14.4 42.4-149.6 52-300.8z m-52.8 301.6z"  /><path d="M923.2 321.6c7.2-82.4 3.2-164 3.2-164 1.6-6.4-5.6-11.2-11.2-8.8 0 0-68 15.2-138.4 39.2l146.4 133.6z" fill="#EC6B55" /><path d="M523.2 532.8m-440 0a440 440 0 1 0 880 0 440 440 0 1 0-880 0Z" fill="#F5A518" /><path d="M523.2 992.8c-253.6 0-460-206.4-460-460S269.6 72.8 523.2 72.8s460 206.4 460 460-206.4 460-460 460z m0-880c-231.2 0-420 188.8-420 420s188.8 420 420 420 420-188.8 420-420-188-420-420-420z"  /><path d="M332.8 159.2c0 66.4 17.6 120 40 120s40-53.6 40-120c0-15.2-0.8-30.4-2.4-44-26.4 4.8-52 12.8-76.8 22.4 0 7.2-0.8 14.4-0.8 21.6zM488.8 110.4c-2.4 15.2-3.2 31.2-3.2 48.8 0 66.4 17.6 120 40 120s40-53.6 40-120c0-17.6-1.6-33.6-3.2-48.8-12.8-0.8-25.6-1.6-38.4-1.6-12 0-24 0.8-35.2 1.6zM636.8 159.2c0 66.4 17.6 120 40 120s40-53.6 40-120c0-7.2 0-13.6-0.8-20-24.8-10.4-50.4-17.6-76.8-23.2-1.6 13.6-2.4 28-2.4 43.2z" fill="#994823" /><path d="M344.8 480m-87.2 0a87.2 87.2 0 1 0 174.4 0 87.2 87.2 0 1 0-174.4 0Z" fill="#FFFFFF" /><path d="M344.8 576c-52.8 0-96-43.2-96-96s43.2-96 96-96 96 43.2 96 96-43.2 96-96 96z m0-174.4c-43.2 0-78.4 35.2-78.4 78.4s35.2 78.4 78.4 78.4 78.4-35.2 78.4-78.4-35.2-78.4-78.4-78.4z"  /><path d="M344.8 480m-58.4 0a58.4 58.4 0 1 0 116.8 0 58.4 58.4 0 1 0-116.8 0Z"  /><path d="M327.2 433.6m-17.6 0a17.6 17.6 0 1 0 35.2 0 17.6 17.6 0 1 0-35.2 0Z" fill="#FFFFFF" /><path d="M344.8 474.4m-12 0a12 12 0 1 0 24 0 12 12 0 1 0-24 0Z" fill="#FFFFFF" /><path d="M696.8 480m-87.2 0a87.2 87.2 0 1 0 174.4 0 87.2 87.2 0 1 0-174.4 0Z" fill="#FFFFFF" /><path d="M696.8 576c-52.8 0-96-43.2-96-96s43.2-96 96-96 96 43.2 96 96-43.2 96-96 96z m0-174.4c-43.2 0-78.4 35.2-78.4 78.4s35.2 78.4 78.4 78.4 78.4-35.2 78.4-78.4-35.2-78.4-78.4-78.4z"  /><path d="M696.8 480m-58.4 0a58.4 58.4 0 1 0 116.8 0 58.4 58.4 0 1 0-116.8 0Z"  /><path d="M679.2 433.6m-17.6 0a17.6 17.6 0 1 0 35.2 0 17.6 17.6 0 1 0-35.2 0Z" fill="#FFFFFF" /><path d="M696.8 474.4m-12 0a12 12 0 1 0 24 0 12 12 0 1 0-24 0Z" fill="#FFFFFF" /><path d="M483.2 634.4l-24.8 42.4c-6.4 10.4 1.6 24 13.6 24h104.8c12 0 20-13.6 13.6-24l-24.8-42.4c-18.4-32-64-32-82.4 0z"  /><path d="M441.6 768c-21.6 0-41.6-11.2-60-32.8-4-4.8-3.2-12.8 1.6-16.8s12.8-3.2 16.8 1.6c14.4 17.6 28.8 25.6 44 24 30.4-2.4 59.2-40.8 68-55.2 3.2-5.6 10.4-7.2 16.8-4 5.6 3.2 7.2 10.4 4 16.8-0.8 2.4-36.8 63.2-85.6 66.4h-5.6z"  /><path d="M616.8 768h-4.8c-48.8-4-85.6-64-87.2-66.4-3.2-5.6-1.6-12.8 4-16.8 5.6-3.2 12.8-1.6 16.8 4 8.8 14.4 37.6 52.8 68 55.2 15.2 0.8 29.6-6.4 44-24 4-4.8 12-5.6 16.8-1.6s5.6 12 1.6 16.8c-17.6 22.4-37.6 32.8-59.2 32.8z"  /><path d="M576 764.8c-9.6-8.8-27.2-15.2-47.2-15.2-21.6 0-40 6.4-49.6 16.8 12.8 16.8 31.2 36 47.2 36 17.6 0.8 36.8-20 49.6-37.6z" fill="#EC6B55" /><path d="M527.2 815.2c-33.6 0-68-55.2-74.4-65.6l20.8-12c12.8 21.6 39.2 54.4 53.6 54.4 15.2 0 40.8-32 53.6-54.4l20.8 12c-6.4 10.4-40.8 65.6-74.4 65.6zM730.4 668c-4.8 0-9.6-3.2-11.2-8-1.6-6.4 1.6-12.8 8-15.2l279.2-88c6.4-1.6 12.8 1.6 15.2 8 1.6 6.4-1.6 12.8-8 15.2l-279.2 88c-1.6-0.8-3.2 0-4 0zM722.4 700c-6.4 0-12-5.6-12-12s5.6-12 12-12l287.2-1.6c6.4 0 12 5.6 12 12s-5.6 12-12 12l-287.2 1.6zM1007.2 852c-1.6 0-3.2 0-4.8-0.8L724.8 734.4c-6.4-2.4-8.8-9.6-6.4-16 2.4-6.4 9.6-8.8 16-6.4l277.6 116.8c6.4 2.4 8.8 9.6 6.4 16-2.4 4.8-6.4 7.2-11.2 7.2zM297.6 668c-0.8 0-2.4 0-4-0.8l-279.2-88c-6.4-1.6-9.6-8.8-8-15.2s8.8-9.6 15.2-8l279.2 88c6.4 1.6 9.6 8.8 8 15.2-1.6 5.6-6.4 8.8-11.2 8.8zM305.6 700l-287.2-1.6c-6.4 0-12-5.6-12-12s5.6-12 12-12l287.2 1.6c6.4 0 12 5.6 12 12s-5.6 12-12 12zM28.8 852c-4.8 0-8.8-2.4-11.2-7.2-2.4-6.4 0-12.8 6.4-16l268.8-120.8c6.4-2.4 12.8 0 16 6.4s0 12.8-6.4 16L33.6 851.2c-1.6 0.8-3.2 0.8-4.8 0.8z"  /><path d="M816.8 472.8a80 32 0 1 0 160 0 80 32 0 1 0-160 0Z" fill="#994823" /><path d="M72.8 472.8a80 32 0 1 0 160 0 80 32 0 1 0-160 0Z" fill="#994823" /><path d="M523.2 992.8c-253.6 0-460-206.4-460-460S269.6 72.8 523.2 72.8s460 206.4 460 460-206.4 460-460 460z m0-880c-231.2 0-420 188.8-420 420s188.8 420 420 420 420-188.8 420-420-188-420-420-420z"  /></svg>